<svg width="20" height="20" viewBox="0 0 24 24" fill="none" xmlns="http://www.w3.org/2000/svg">
<path d="M5.762 14.705L3.2 12.148C2.89059 11.8395 2.6723 11.4515 2.56915 11.0269C2.46599 10.6023 2.48197 10.1575 2.61533 9.7414C2.74869 9.32529 2.99426 8.95404 3.32502 8.6685C3.65577 8.38296 4.05889 8.19421 4.49 8.123L7.873 7.566L9.903 3.758C10.1055 3.37798 10.4075 3.06017 10.7767 2.83856C11.1459 2.61695 11.5684 2.49988 11.999 2.49988C12.4296 2.49988 12.8521 2.61695 13.2213 2.83856C13.5905 3.06017 13.8925 3.37798 14.095 3.758L16.125 7.566L19.508 8.123C19.9392 8.19406 20.3424 8.38271 20.6733 8.66818C21.0042 8.95366 21.2499 9.3249 21.3834 9.74103C21.5168 10.1572 21.5329 10.6021 21.4298 11.0267C21.3267 11.4514 21.1084 11.8394 20.799 12.148L18.237 14.705L18.853 18.765C18.9176 19.193 18.8641 19.6306 18.6981 20.0304C18.5321 20.4302 18.2599 20.777 17.9111 21.0334C17.5623 21.2897 17.1501 21.4459 16.7189 21.4849C16.2878 21.524 15.8542 21.4445 15.465 21.255L12 19.569L8.534 21.257C8.14463 21.4467 7.7108 21.5262 7.27947 21.4871C6.84814 21.448 6.43571 21.2916 6.08682 21.035C5.73793 20.7784 5.46585 20.4312 5.30003 20.0311C5.1342 19.631 5.08094 19.1932 5.146 18.765L5.762 14.705Z" fill="#FDC24F"/>
</svg>
